<svg width="150" height="150" viewBox="0 0 150 150" fill="none" xmlns="http://www.w3.org/2000/svg">
<mask id="mask0_20_705" style="mask-type:alpha" maskUnits="userSpaceOnUse" x="0" y="0" width="150" height="150">
<rect width="150" height="150" fill="#D9D9D9"/>
</mask>
<g mask="url(#mask0_20_705)">
<path d="M65.9375 98.125L104.688 59.375L101.562 56.25L65.9375 91.875L48.125 74.0625L45 77.1875L65.9375 98.125ZM75.0272 129.375C67.5091 129.375 60.4397 127.948 53.8191 125.095C47.1983 122.242 41.4392 118.37 36.5417 113.478C31.6443 108.587 27.7672 102.835 24.9103 96.2228C22.0534 89.6105 20.625 82.5453 20.625 75.0272C20.625 67.5091 22.0516 60.4397 24.9048 53.8191C27.7582 47.1983 31.6305 41.4393 36.5217 36.5419C41.4131 31.6444 47.1649 27.7672 53.7772 24.9103C60.3895 22.0534 67.4547 20.625 74.9728 20.625C82.4909 20.625 89.5603 22.0516 96.1809 24.9048C102.802 27.7582 108.561 31.6305 113.458 36.5217C118.356 41.4131 122.233 47.1649 125.09 53.7772C127.947 60.3895 129.375 67.4547 129.375 74.9728C129.375 82.4909 127.948 89.5603 125.095 96.1809C122.242 102.802 118.37 108.561 113.478 113.458C108.587 118.356 102.835 122.233 96.2228 125.09C89.6105 127.947 82.5453 129.375 75.0272 129.375ZM75 125C88.9583 125 100.781 120.156 110.469 110.469C120.156 100.781 125 88.9583 125 75C125 61.0417 120.156 49.2188 110.469 39.5312C100.781 29.8438 88.9583 25 75 25C61.0417 25 49.2188 29.8438 39.5312 39.5312C29.8438 49.2188 25 61.0417 25 75C25 88.9583 29.8438 100.781 39.5312 110.469C49.2188 120.156 61.0417 125 75 125Z" fill="#0055FF"/>
</g>
</svg>
