<svg width="20" height="15" viewBox="0 0 20 15" fill="none" xmlns="http://www.w3.org/2000/svg">
<path d="M0 14.693V8.49961C0 8.0351 0.0916667 7.6136 0.275 7.23511C0.458333 6.85663 0.7 6.52115 1 6.22868V3.33841C1 2.47822 1.29167 1.74705 1.875 1.14491C2.45833 0.542769 3.16667 0.241699 4 0.241699H8C8.38333 0.241699 8.74167 0.314816 9.075 0.46105C9.40833 0.607284 9.71667 0.80943 10 1.06749C10.2833 0.80943 10.5917 0.607284 10.925 0.46105C11.2583 0.314816 11.6167 0.241699 12 0.241699H16C16.8333 0.241699 17.5417 0.542769 18.125 1.14491C18.7083 1.74705 19 2.47822 19 3.33841V6.22868C19.3 6.52115 19.5417 6.85663 19.725 7.23511C19.9083 7.6136 20 8.0351 20 8.49961V14.693H18V12.6286H2V14.693H0ZM11 5.40289H17V3.33841C17 3.04595 16.9042 2.80079 16.7125 2.60294C16.5208 2.4051 16.2833 2.30618 16 2.30618H12C11.7167 2.30618 11.4792 2.4051 11.2875 2.60294C11.0958 2.80079 11 3.04595 11 3.33841V5.40289ZM3 5.40289H9V3.33841C9 3.04595 8.90417 2.80079 8.7125 2.60294C8.52083 2.4051 8.28333 2.30618 8 2.30618H4C3.71667 2.30618 3.47917 2.4051 3.2875 2.60294C3.09583 2.80079 3 3.04595 3 3.33841V5.40289ZM2 10.5641H18V8.49961C18 8.20714 17.9042 7.96198 17.7125 7.76414C17.5208 7.56629 17.2833 7.46737 17 7.46737H3C2.71667 7.46737 2.47917 7.56629 2.2875 7.76414C2.09583 7.96198 2 8.20714 2 8.49961V10.5641Z" fill="#A3A3A3"/>
</svg>
