<svg width="12" height="13" viewBox="0 0 12 13" fill="none" xmlns="http://www.w3.org/2000/svg">
<path d="M1.31731 12.8125C1.0016 12.8125 0.734375 12.7031 0.515625 12.4843C0.296875 12.2656 0.1875 11.9983 0.1875 11.6826V3.3173C0.1875 3.00159 0.296875 2.73436 0.515625 2.51561C0.734375 2.29686 1.0016 2.18748 1.31731 2.18748H6.72716L5.78967 3.12497H1.31731C1.26923 3.12497 1.22515 3.145 1.18508 3.18506C1.14502 3.22513 1.12498 3.26921 1.12498 3.3173V11.6826C1.12498 11.7307 1.14502 11.7748 1.18508 11.8149C1.22515 11.8549 1.26923 11.875 1.31731 11.875H9.68266C9.73074 11.875 9.77482 11.8549 9.81489 11.8149C9.85495 11.7748 9.87499 11.7307 9.87499 11.6826V7.17061L10.8125 6.23314V11.6826C10.8125 11.9983 10.7031 12.2656 10.4843 12.4843C10.2656 12.7031 9.99836 12.8125 9.68266 12.8125H1.31731ZM3.9375 9.06245V6.91705L9.59977 1.2548C9.69671 1.15784 9.80328 1.08712 9.91947 1.04265C10.0356 0.998186 10.1538 0.975952 10.274 0.975952C10.3966 0.975952 10.5144 0.998186 10.6274 1.04265C10.7404 1.08712 10.8433 1.15583 10.9363 1.24878L11.7211 2.03123C11.8117 2.12818 11.8812 2.23515 11.9296 2.35214C11.9781 2.46912 12.0024 2.5877 12.0024 2.70789C12.0024 2.82809 11.9817 2.94468 11.9405 3.05766C11.8992 3.17062 11.8301 3.27559 11.7331 3.37255L6.05286 9.06245H3.9375ZM4.87498 8.12497H5.65383L9.54928 4.22951L9.15986 3.84009L8.7428 3.43865L4.87498 7.30647V8.12497Z" fill="#A3A3A3"/>
</svg>
