<svg width="24" height="24" viewBox="0 0 24 24" fill="none" xmlns="http://www.w3.org/2000/svg">
<mask id="mask0_2005_11" style="mask-type:alpha" maskUnits="userSpaceOnUse" x="0" y="0" width="24" height="24">
<rect width="24" height="24" fill="#D9D9D9"/>
</mask>
<g mask="url(#mask0_2005_11)">
<path d="M17.6538 19.6538C16.7169 19.6538 15.925 19.3303 15.2781 18.6834C14.6312 18.0365 14.3077 17.2446 14.3077 16.3077C14.3077 15.3707 14.6312 14.5788 15.2781 13.9319C15.925 13.285 16.7169 12.9615 17.6538 12.9615C18.5907 12.9615 19.3826 13.285 20.0296 13.9319C20.6765 14.5788 21 15.3707 21 16.3077C21 17.2446 20.6765 18.0365 20.0296 18.6834C19.3826 19.3303 18.5907 19.6538 17.6538 19.6538ZM17.6529 18.1538C18.1625 18.1538 18.5977 17.9737 18.9586 17.6134C19.3195 17.2532 19.5 16.8183 19.5 16.3086C19.5 15.799 19.3199 15.3638 18.9596 15.0029C18.5994 14.642 18.1644 14.4615 17.6548 14.4615C17.1452 14.4615 16.7099 14.6416 16.349 15.0019C15.9881 15.3621 15.8077 15.7971 15.8077 16.3067C15.8077 16.8163 15.9878 17.2516 16.348 17.6125C16.7083 17.9734 17.1432 18.1538 17.6529 18.1538ZM4.5 17.0576V15.5577H12.1154V17.0576H4.5ZM6.34613 11.0384C5.40923 11.0384 4.61731 10.715 3.97037 10.0681C3.32346 9.42115 3 8.62923 3 7.69232C3 6.7554 3.32346 5.96348 3.97037 5.31657C4.61731 4.66965 5.40923 4.34619 6.34613 4.34619C7.28304 4.34619 8.07496 4.66965 8.72188 5.31657C9.36879 5.96348 9.69225 6.7554 9.69225 7.69232C9.69225 8.62923 9.36879 9.42115 8.72188 10.0681C8.07496 10.715 7.28304 11.0384 6.34613 11.0384ZM6.34518 9.53847C6.85479 9.53847 7.29005 9.35834 7.65095 8.99809C8.01185 8.63784 8.1923 8.20291 8.1923 7.69329C8.1923 7.18366 8.01218 6.74839 7.65193 6.38749C7.29168 6.02659 6.85673 5.84614 6.3471 5.84614C5.83748 5.84614 5.40223 6.02627 5.04133 6.38654C4.68043 6.74679 4.49998 7.18172 4.49998 7.69134C4.49998 8.20096 4.6801 8.63622 5.04035 8.99712C5.4006 9.35802 5.83554 9.53847 6.34518 9.53847ZM11.8846 8.44229V6.94234H19.5V8.44229H11.8846Z" fill="#00296B"/>
</g>
</svg>
